<svg xmlns="http://www.w3.org/2000/svg" viewBox="0 0 400 300" role="img" shape-rendering="crispEdges"><title>CON-004</title><rect width="400" height="300" fill="#E4DCFF"/><rect x="10" y="10" width="4" height="4" fill="#1A1433" opacity=".06"/><rect x="10" y="40" width="4" height="4" fill="#1A1433" opacity=".06"/><rect x="10" y="70" width="4" height="4" fill="#1A1433" opacity=".06"/><rect x="10" y="100" width="4" height="4" fill="#1A1433" opacity=".06"/><rect x="10" y="130" width="4" height="4" fill="#1A1433" opacity=".06"/><rect x="10" y="160" width="4" height="4" fill="#1A1433" opacity=".06"/><rect x="10" y="190" width="4" height="4" fill="#1A1433" opacity=".06"/><rect x="10" y="220" width="4" height="4" fill="#1A1433" opacity=".06"/><rect x="10" y="250" width="4" height="4" fill="#1A1433" opacity=".06"/><rect x="10" y="280" width="4" height="4" fill="#1A1433" opacity=".06"/><rect x="40" y="10" width="4" height="4" fill="#1A1433" opacity=".06"/><rect x="40" y="40" width="4" height="4" fill="#1A1433" opacity=".06"/><rect x="40" y="70" width="4" height="4" fill="#1A1433" opacity=".06"/><rect x="40" y="100" width="4" height="4" fill="#1A1433" opacity=".06"/><rect x="40" y="130" width="4" height="4" fill="#1A1433" opacity=".06"/><rect x="40" y="160" width="4" height="4" fill="#1A1433" opacity=".06"/><rect x="40" y="190" width="4" height="4" fill="#1A1433" opacity=".06"/><rect x="40" y="220" width="4" height="4" fill="#1A1433" opacity=".06"/><rect x="40" y="250" width="4" height="4" fill="#1A1433" opacity=".06"/><rect x="40" y="280" width="4" height="4" fill="#1A1433" opacity=".06"/><rect x="70" y="10" width="4" height="4" fill="#1A1433" opacity=".06"/><rect x="70" y="40" width="4" height="4" fill="#1A1433" opacity=".06"/><rect x="70" y="70" width="4" height="4" fill="#1A1433" opacity=".06"/><rect x="70" y="100" width="4" height="4" fill="#1A1433" opacity=".06"/><rect x="70" y="130" width="4" height="4" fill="#1A1433" opacity=".06"/><rect x="70" y="160" width="4" height="4" fill="#1A1433" opacity=".06"/><rect x="70" y="190" width="4" height="4" fill="#1A1433" opacity=".06"/><rect x="70" y="220" width="4" height="4" fill="#1A1433" opacity=".06"/><rect x="70" y="250" width="4" height="4" fill="#1A1433" opacity=".06"/><rect x="70" y="280" width="4" height="4" fill="#1A1433" opacity=".06"/><rect x="100" y="10" width="4" height="4" fill="#1A1433" opacity=".06"/><rect x="100" y="40" width="4" height="4" fill="#1A1433" opacity=".06"/><rect x="100" y="70" width="4" height="4" fill="#1A1433" opacity=".06"/><rect x="100" y="100" width="4" height="4" fill="#1A1433" opacity=".06"/><rect x="100" y="130" width="4" height="4" fill="#1A1433" opacity=".06"/><rect x="100" y="160" width="4" height="4" fill="#1A1433" opacity=".06"/><rect x="100" y="190" width="4" height="4" fill="#1A1433" opacity=".06"/><rect x="100" y="220" width="4" height="4" fill="#1A1433" opacity=".06"/><rect x="100" y="250" width="4" height="4" fill="#1A1433" opacity=".06"/><rect x="100" y="280" width="4" height="4" fill="#1A1433" opacity=".06"/><rect x="130" y="10" width="4" height="4" fill="#1A1433" opacity=".06"/><rect x="130" y="40" width="4" height="4" fill="#1A1433" opacity=".06"/><rect x="130" y="70" width="4" height="4" fill="#1A1433" opacity=".06"/><rect x="130" y="100" width="4" height="4" fill="#1A1433" opacity=".06"/><rect x="130" y="130" width="4" height="4" fill="#1A1433" opacity=".06"/><rect x="130" y="160" width="4" height="4" fill="#1A1433" opacity=".06"/><rect x="130" y="190" width="4" height="4" fill="#1A1433" opacity=".06"/><rect x="130" y="220" width="4" height="4" fill="#1A1433" opacity=".06"/><rect x="130" y="250" width="4" height="4" fill="#1A1433" opacity=".06"/><rect x="130" y="280" width="4" height="4" fill="#1A1433" opacity=".06"/><rect x="160" y="10" width="4" height="4" fill="#1A1433" opacity=".06"/><rect x="160" y="40" width="4" height="4" fill="#1A1433" opacity=".06"/><rect x="160" y="70" width="4" height="4" fill="#1A1433" opacity=".06"/><rect x="160" y="100" width="4" height="4" fill="#1A1433" opacity=".06"/><rect x="160" y="130" width="4" height="4" fill="#1A1433" opacity=".06"/><rect x="160" y="160" width="4" height="4" fill="#1A1433" opacity=".06"/><rect x="160" y="190" width="4" height="4" fill="#1A1433" opacity=".06"/><rect x="160" y="220" width="4" height="4" fill="#1A1433" opacity=".06"/><rect x="160" y="250" width="4" height="4" fill="#1A1433" opacity=".06"/><rect x="160" y="280" width="4" height="4" fill="#1A1433" opacity=".06"/><rect x="190" y="10" width="4" height="4" fill="#1A1433" opacity=".06"/><rect x="190" y="40" width="4" height="4" fill="#1A1433" opacity=".06"/><rect x="190" y="70" width="4" height="4" fill="#1A1433" opacity=".06"/><rect x="190" y="100" width="4" height="4" fill="#1A1433" opacity=".06"/><rect x="190" y="130" width="4" height="4" fill="#1A1433" opacity=".06"/><rect x="190" y="160" width="4" height="4" fill="#1A1433" opacity=".06"/><rect x="190" y="190" width="4" height="4" fill="#1A1433" opacity=".06"/><rect x="190" y="220" width="4" height="4" fill="#1A1433" opacity=".06"/><rect x="190" y="250" width="4" height="4" fill="#1A1433" opacity=".06"/><rect x="190" y="280" width="4" height="4" fill="#1A1433" opacity=".06"/><rect x="220" y="10" width="4" height="4" fill="#1A1433" opacity=".06"/><rect x="220" y="40" width="4" height="4" fill="#1A1433" opacity=".06"/><rect x="220" y="70" width="4" height="4" fill="#1A1433" opacity=".06"/><rect x="220" y="100" width="4" height="4" fill="#1A1433" opacity=".06"/><rect x="220" y="130" width="4" height="4" fill="#1A1433" opacity=".06"/><rect x="220" y="160" width="4" height="4" fill="#1A1433" opacity=".06"/><rect x="220" y="190" width="4" height="4" fill="#1A1433" opacity=".06"/><rect x="220" y="220" width="4" height="4" fill="#1A1433" opacity=".06"/><rect x="220" y="250" width="4" height="4" fill="#1A1433" opacity=".06"/><rect x="220" y="280" width="4" height="4" fill="#1A1433" opacity=".06"/><rect x="250" y="10" width="4" height="4" fill="#1A1433" opacity=".06"/><rect x="250" y="40" width="4" height="4" fill="#1A1433" opacity=".06"/><rect x="250" y="70" width="4" height="4" fill="#1A1433" opacity=".06"/><rect x="250" y="100" width="4" height="4" fill="#1A1433" opacity=".06"/><rect x="250" y="130" width="4" height="4" fill="#1A1433" opacity=".06"/><rect x="250" y="160" width="4" height="4" fill="#1A1433" opacity=".06"/><rect x="250" y="190" width="4" height="4" fill="#1A1433" opacity=".06"/><rect x="250" y="220" width="4" height="4" fill="#1A1433" opacity=".06"/><rect x="250" y="250" width="4" height="4" fill="#1A1433" opacity=".06"/><rect x="250" y="280" width="4" height="4" fill="#1A1433" opacity=".06"/><rect x="280" y="10" width="4" height="4" fill="#1A1433" opacity=".06"/><rect x="280" y="40" width="4" height="4" fill="#1A1433" opacity=".06"/><rect x="280" y="70" width="4" height="4" fill="#1A1433" opacity=".06"/><rect x="280" y="100" width="4" height="4" fill="#1A1433" opacity=".06"/><rect x="280" y="130" width="4" height="4" fill="#1A1433" opacity=".06"/><rect x="280" y="160" width="4" height="4" fill="#1A1433" opacity=".06"/><rect x="280" y="190" width="4" height="4" fill="#1A1433" opacity=".06"/><rect x="280" y="220" width="4" height="4" fill="#1A1433" opacity=".06"/><rect x="280" y="250" width="4" height="4" fill="#1A1433" opacity=".06"/><rect x="280" y="280" width="4" height="4" fill="#1A1433" opacity=".06"/><rect x="310" y="10" width="4" height="4" fill="#1A1433" opacity=".06"/><rect x="310" y="40" width="4" height="4" fill="#1A1433" opacity=".06"/><rect x="310" y="70" width="4" height="4" fill="#1A1433" opacity=".06"/><rect x="310" y="100" width="4" height="4" fill="#1A1433" opacity=".06"/><rect x="310" y="130" width="4" height="4" fill="#1A1433" opacity=".06"/><rect x="310" y="160" width="4" height="4" fill="#1A1433" opacity=".06"/><rect x="310" y="190" width="4" height="4" fill="#1A1433" opacity=".06"/><rect x="310" y="220" width="4" height="4" fill="#1A1433" opacity=".06"/><rect x="310" y="250" width="4" height="4" fill="#1A1433" opacity=".06"/><rect x="310" y="280" width="4" height="4" fill="#1A1433" opacity=".06"/><rect x="340" y="10" width="4" height="4" fill="#1A1433" opacity=".06"/><rect x="340" y="40" width="4" height="4" fill="#1A1433" opacity=".06"/><rect x="340" y="70" width="4" height="4" fill="#1A1433" opacity=".06"/><rect x="340" y="100" width="4" height="4" fill="#1A1433" opacity=".06"/><rect x="340" y="130" width="4" height="4" fill="#1A1433" opacity=".06"/><rect x="340" y="160" width="4" height="4" fill="#1A1433" opacity=".06"/><rect x="340" y="190" width="4" height="4" fill="#1A1433" opacity=".06"/><rect x="340" y="220" width="4" height="4" fill="#1A1433" opacity=".06"/><rect x="340" y="250" width="4" height="4" fill="#1A1433" opacity=".06"/><rect x="340" y="280" width="4" height="4" fill="#1A1433" opacity=".06"/><rect x="370" y="10" width="4" height="4" fill="#1A1433" opacity=".06"/><rect x="370" y="40" width="4" height="4" fill="#1A1433" opacity=".06"/><rect x="370" y="70" width="4" height="4" fill="#1A1433" opacity=".06"/><rect x="370" y="100" width="4" height="4" fill="#1A1433" opacity=".06"/><rect x="370" y="130" width="4" height="4" fill="#1A1433" opacity=".06"/><rect x="370" y="160" width="4" height="4" fill="#1A1433" opacity=".06"/><rect x="370" y="190" width="4" height="4" fill="#1A1433" opacity=".06"/><rect x="370" y="220" width="4" height="4" fill="#1A1433" opacity=".06"/><rect x="370" y="250" width="4" height="4" fill="#1A1433" opacity=".06"/><rect x="370" y="280" width="4" height="4" fill="#1A1433" opacity=".06"/><rect x="81" y="99" width="17" height="17" fill="#FF4F79"/><rect x="98" y="99" width="17" height="17" fill="#FF4F79"/><rect x="115" y="99" width="17" height="17" fill="#1A1433"/><rect x="132" y="99" width="17" height="17" fill="#1A1433"/><rect x="149" y="99" width="17" height="17" fill="#1A1433"/><rect x="166" y="99" width="17" height="17" fill="#1A1433"/><rect x="183" y="99" width="17" height="17" fill="#1A1433"/><rect x="200" y="99" width="17" height="17" fill="#1A1433"/><rect x="217" y="99" width="17" height="17" fill="#1A1433"/><rect x="234" y="99" width="17" height="17" fill="#1A1433"/><rect x="251" y="99" width="17" height="17" fill="#1A1433"/><rect x="268" y="99" width="17" height="17" fill="#1A1433"/><rect x="285" y="99" width="17" height="17" fill="#6C3CE9"/><rect x="302" y="99" width="17" height="17" fill="#6C3CE9"/><rect x="81" y="116" width="17" height="17" fill="#FF4F79"/><rect x="98" y="116" width="17" height="17" fill="#FF4F79"/><rect x="115" y="116" width="17" height="17" fill="#1A1433"/><rect x="132" y="116" width="17" height="17" fill="#FFFFFF"/><rect x="149" y="116" width="17" height="17" fill="#FFFFFF"/><rect x="166" y="116" width="17" height="17" fill="#FFFFFF"/><rect x="183" y="116" width="17" height="17" fill="#FFFFFF"/><rect x="200" y="116" width="17" height="17" fill="#FFFFFF"/><rect x="217" y="116" width="17" height="17" fill="#FFFFFF"/><rect x="234" y="116" width="17" height="17" fill="#FFFFFF"/><rect x="251" y="116" width="17" height="17" fill="#FFFFFF"/><rect x="268" y="116" width="17" height="17" fill="#1A1433"/><rect x="285" y="116" width="17" height="17" fill="#6C3CE9"/><rect x="302" y="116" width="17" height="17" fill="#6C3CE9"/><rect x="81" y="133" width="17" height="17" fill="#FF4F79"/><rect x="115" y="133" width="17" height="17" fill="#1A1433"/><rect x="132" y="133" width="17" height="17" fill="#FFFFFF"/><rect x="149" y="133" width="17" height="17" fill="#FFFFFF"/><rect x="166" y="133" width="17" height="17" fill="#FFFFFF"/><rect x="183" y="133" width="17" height="17" fill="#FFFFFF"/><rect x="200" y="133" width="17" height="17" fill="#FFFFFF"/><rect x="217" y="133" width="17" height="17" fill="#FFFFFF"/><rect x="234" y="133" width="17" height="17" fill="#FFFFFF"/><rect x="251" y="133" width="17" height="17" fill="#FFFFFF"/><rect x="268" y="133" width="17" height="17" fill="#1A1433"/><rect x="302" y="133" width="17" height="17" fill="#6C3CE9"/><rect x="81" y="150" width="17" height="17" fill="#FF4F79"/><rect x="98" y="150" width="17" height="17" fill="#FF4F79"/><rect x="115" y="150" width="17" height="17" fill="#1A1433"/><rect x="132" y="150" width="17" height="17" fill="#FFFFFF"/><rect x="149" y="150" width="17" height="17" fill="#FFFFFF"/><rect x="166" y="150" width="17" height="17" fill="#FFFFFF"/><rect x="183" y="150" width="17" height="17" fill="#FFFFFF"/><rect x="200" y="150" width="17" height="17" fill="#FFFFFF"/><rect x="217" y="150" width="17" height="17" fill="#FFFFFF"/><rect x="234" y="150" width="17" height="17" fill="#FFFFFF"/><rect x="251" y="150" width="17" height="17" fill="#FFFFFF"/><rect x="268" y="150" width="17" height="17" fill="#1A1433"/><rect x="285" y="150" width="17" height="17" fill="#6C3CE9"/><rect x="302" y="150" width="17" height="17" fill="#6C3CE9"/><rect x="81" y="167" width="17" height="17" fill="#FF4F79"/><rect x="98" y="167" width="17" height="17" fill="#FF4F79"/><rect x="115" y="167" width="17" height="17" fill="#1A1433"/><rect x="132" y="167" width="17" height="17" fill="#FFFFFF"/><rect x="149" y="167" width="17" height="17" fill="#FFFFFF"/><rect x="166" y="167" width="17" height="17" fill="#FFFFFF"/><rect x="183" y="167" width="17" height="17" fill="#FFFFFF"/><rect x="200" y="167" width="17" height="17" fill="#FFFFFF"/><rect x="217" y="167" width="17" height="17" fill="#FFFFFF"/><rect x="234" y="167" width="17" height="17" fill="#FFFFFF"/><rect x="251" y="167" width="17" height="17" fill="#FFFFFF"/><rect x="268" y="167" width="17" height="17" fill="#1A1433"/><rect x="285" y="167" width="17" height="17" fill="#6C3CE9"/><rect x="302" y="167" width="17" height="17" fill="#6C3CE9"/><rect x="81" y="184" width="17" height="17" fill="#FF4F79"/><rect x="98" y="184" width="17" height="17" fill="#FF4F79"/><rect x="115" y="184" width="17" height="17" fill="#1A1433"/><rect x="132" y="184" width="17" height="17" fill="#1A1433"/><rect x="149" y="184" width="17" height="17" fill="#1A1433"/><rect x="166" y="184" width="17" height="17" fill="#1A1433"/><rect x="183" y="184" width="17" height="17" fill="#1A1433"/><rect x="200" y="184" width="17" height="17" fill="#1A1433"/><rect x="217" y="184" width="17" height="17" fill="#1A1433"/><rect x="234" y="184" width="17" height="17" fill="#1A1433"/><rect x="251" y="184" width="17" height="17" fill="#1A1433"/><rect x="268" y="184" width="17" height="17" fill="#1A1433"/><rect x="285" y="184" width="17" height="17" fill="#6C3CE9"/><rect x="302" y="184" width="17" height="17" fill="#6C3CE9"/></svg>