<svg xmlns="http://www.w3.org/2000/svg" viewBox="0 0 400 300" role="img" shape-rendering="crispEdges"><title>CON-004</title><rect width="400" height="300" fill="#E4DCFF"/><rect x="10" y="10" width="4" height="4" fill="#1A1433" opacity=".06"/><rect x="10" y="40" width="4" height="4" fill="#1A1433" opacity=".06"/><rect x="10" y="70" width="4" height="4" fill="#1A1433" opacity=".06"/><rect x="10" y="100" width="4" height="4" fill="#1A1433" opacity=".06"/><rect x="10" y="130" width="4" height="4" fill="#1A1433" opacity=".06"/><rect x="10" y="160" width="4" height="4" fill="#1A1433" opacity=".06"/><rect x="10" y="190" width="4" height="4" fill="#1A1433" opacity=".06"/><rect x="10" y="220" width="4" height="4" fill="#1A1433" opacity=".06"/><rect x="10" y="250" width="4" height="4" fill="#1A1433" opacity=".06"/><rect x="10" y="280" width="4" height="4" fill="#1A1433" opacity=".06"/><rect x="40" y="10" width="4" height="4" fill="#1A1433" opacity=".06"/><rect x="40" y="40" width="4" height="4" fill="#1A1433" opacity=".06"/><rect x="40" y="70" width="4" height="4" fill="#1A1433" opacity=".06"/><rect x="40" y="100" width="4" height="4" fill="#1A1433" opacity=".06"/><rect x="40" y="130" width="4" height="4" fill="#1A1433" opacity=".06"/><rect x="40" y="160" width="4" height="4" fill="#1A1433" opacity=".06"/><rect x="40" y="190" width="4" height="4" fill="#1A1433" opacity=".06"/><rect x="40" y="220" width="4" height="4" fill="#1A1433" opacity=".06"/><rect x="40" y="250" width="4" height="4" fill="#1A1433" opacity=".06"/><rect x="40" y="280" width="4" height="4" fill="#1A1433" opacity=".06"/><rect x="70" y="10" width="4" height="4" fill="#1A1433" opacity=".06"/><rect x="70" y="40" width="4" height="4" fill="#1A1433" opacity=".06"/><rect x="70" y="70" width="4" height="4" fill="#1A1433" opacity=".06"/><rect x="70" y="100" width="4" height="4" fill="#1A1433" opacity=".06"/><rect x="70" y="130" width="4" height="4" fill="#1A1433" opacity=".06"/><rect x="70" y="160" width="4" height="4" fill="#1A1433" opacity=".06"/><rect x="70" y="190" width="4" height="4" fill="#1A1433" opacity=".06"/><rect x="70" y="220" width="4" height="4" fill="#1A1433" opacity=".06"/><rect x="70" y="250" width="4" height="4" fill="#1A1433" opacity=".06"/><rect x="70" y="280" width="4" height="4" fill="#1A1433" opacity=".06"/><rect x="100" y="10" width="4" height="4" fill="#1A1433" opacity=".06"/><rect x="100" y="40" width="4" height="4" fill="#1A1433" opacity=".06"/><rect x="100" y="70" width="4" height="4" fill="#1A1433" opacity=".06"/><rect x="100" y="100" width="4" height="4" fill="#1A1433" opacity=".06"/><rect x="100" y="130" width="4" height="4" fill="#1A1433" opacity=".06"/><rect x="100" y="160" width="4" height="4" fill="#1A1433" opacity=".06"/><rect x="100" y="190" width="4" height="4" fill="#1A1433" opacity=".06"/><rect x="100" y="220" width="4" height="4" fill="#1A1433" opacity=".06"/><rect x="100" y="250" width="4" height="4" fill="#1A1433" opacity=".06"/><rect x="100" y="280" width="4" height="4" fill="#1A1433" opacity=".06"/><rect x="130" y="10" width="4" height="4" fill="#1A1433" opacity=".06"/><rect x="130" y="40" width="4" height="4" fill="#1A1433" opacity=".06"/><rect x="130" y="70" width="4" height="4" fill="#1A1433" opacity=".06"/><rect x="130" y="100" width="4" height="4" fill="#1A1433" opacity=".06"/><rect x="130" y="130" width="4" height="4" fill="#1A1433" opacity=".06"/><rect x="130" y="160" width="4" height="4" fill="#1A1433" opacity=".06"/><rect x="130" y="190" width="4" height="4" fill="#1A1433" opacity=".06"/><rect x="130" y="220" width="4" height="4" fill="#1A1433" opacity=".06"/><rect x="130" y="250" width="4" height="4" fill="#1A1433" opacity=".06"/><rect x="130" y="280" width="4" height="4" fill="#1A1433" opacity=".06"/><rect x="160" y="10" width="4" height="4" fill="#1A1433" opacity=".06"/><rect x="160" y="40" width="4" height="4" fill="#1A1433" opacity=".06"/><rect x="160" y="70" width="4" height="4" fill="#1A1433" opacity=".06"/><rect x="160" y="100" width="4" height="4" fill="#1A1433" opacity=".06"/><rect x="160" y="130" width="4" height="4" fill="#1A1433" opacity=".06"/><rect x="160" y="160" width="4" height="4" fill="#1A1433" opacity=".06"/><rect x="160" y="190" width="4" height="4" fill="#1A1433" opacity=".06"/><rect x="160" y="220" width="4" height="4" fill="#1A1433" opacity=".06"/><rect x="160" y="250" width="4" height="4" fill="#1A1433" opacity=".06"/><rect x="160" y="280" width="4" height="4" fill="#1A1433" opacity=".06"/><rect x="190" y="10" width="4" height="4" fill="#1A1433" opacity=".06"/><rect x="190" y="40" width="4" height="4" fill="#1A1433" opacity=".06"/><rect x="190" y="70" width="4" height="4" fill="#1A1433" opacity=".06"/><rect x="190" y="100" width="4" height="4" fill="#1A1433" opacity=".06"/><rect x="190" y="130" width="4" height="4" fill="#1A1433" opacity=".06"/><rect x="190" y="160" width="4" height="4" fill="#1A1433" opacity=".06"/><rect x="190" y="190" width="4" height="4" fill="#1A1433" opacity=".06"/><rect x="190" y="220" width="4" height="4" fill="#1A1433" opacity=".06"/><rect x="190" y="250" width="4" height="4" fill="#1A1433" opacity=".06"/><rect x="190" y="280" width="4" height="4" fill="#1A1433" opacity=".06"/><rect x="220" y="10" width="4" height="4" fill="#1A1433" opacity=".06"/><rect x="220" y="40" width="4" height="4" fill="#1A1433" opacity=".06"/><rect x="220" y="70" width="4" height="4" fill="#1A1433" opacity=".06"/><rect x="220" y="100" width="4" height="4" fill="#1A1433" opacity=".06"/><rect x="220" y="130" width="4" height="4" fill="#1A1433" opacity=".06"/><rect x="220" y="160" width="4" height="4" fill="#1A1433" opacity=".06"/><rect x="220" y="190" width="4" height="4" fill="#1A1433" opacity=".06"/><rect x="220" y="220" width="4" height="4" fill="#1A1433" opacity=".06"/><rect x="220" y="250" width="4" height="4" fill="#1A1433" opacity=".06"/><rect x="220" y="280" width="4" height="4" fill="#1A1433" opacity=".06"/><rect x="250" y="10" width="4" height="4" fill="#1A1433" opacity=".06"/><rect x="250" y="40" width="4" height="4" fill="#1A1433" opacity=".06"/><rect x="250" y="70" width="4" height="4" fill="#1A1433" opacity=".06"/><rect x="250" y="100" width="4" height="4" fill="#1A1433" opacity=".06"/><rect x="250" y="130" width="4" height="4" fill="#1A1433" opacity=".06"/><rect x="250" y="160" width="4" height="4" fill="#1A1433" opacity=".06"/><rect x="250" y="190" width="4" height="4" fill="#1A1433" opacity=".06"/><rect x="250" y="220" width="4" height="4" fill="#1A1433" opacity=".06"/><rect x="250" y="250" width="4" height="4" fill="#1A1433" opacity=".06"/><rect x="250" y="280" width="4" height="4" fill="#1A1433" opacity=".06"/><rect x="280" y="10" width="4" height="4" fill="#1A1433" opacity=".06"/><rect x="280" y="40" width="4" height="4" fill="#1A1433" opacity=".06"/><rect x="280" y="70" width="4" height="4" fill="#1A1433" opacity=".06"/><rect x="280" y="100" width="4" height="4" fill="#1A1433" opacity=".06"/><rect x="280" y="130" width="4" height="4" fill="#1A1433" opacity=".06"/><rect x="280" y="160" width="4" height="4" fill="#1A1433" opacity=".06"/><rect x="280" y="190" width="4" height="4" fill="#1A1433" opacity=".06"/><rect x="280" y="220" width="4" height="4" fill="#1A1433" opacity=".06"/><rect x="280" y="250" width="4" height="4" fill="#1A1433" opacity=".06"/><rect x="280" y="280" width="4" height="4" fill="#1A1433" opacity=".06"/><rect x="310" y="10" width="4" height="4" fill="#1A1433" opacity=".06"/><rect x="310" y="40" width="4" height="4" fill="#1A1433" opacity=".06"/><rect x="310" y="70" width="4" height="4" fill="#1A1433" opacity=".06"/><rect x="310" y="100" width="4" height="4" fill="#1A1433" opacity=".06"/><rect x="310" y="130" width="4" height="4" fill="#1A1433" opacity=".06"/><rect x="310" y="160" width="4" height="4" fill="#1A1433" opacity=".06"/><rect x="310" y="190" width="4" height="4" fill="#1A1433" opacity=".06"/><rect x="310" y="220" width="4" height="4" fill="#1A1433" opacity=".06"/><rect x="310" y="250" width="4" height="4" fill="#1A1433" opacity=".06"/><rect x="310" y="280" width="4" height="4" fill="#1A1433" opacity=".06"/><rect x="340" y="10" width="4" height="4" fill="#1A1433" opacity=".06"/><rect x="340" y="40" width="4" height="4" fill="#1A1433" opacity=".06"/><rect x="340" y="70" width="4" height="4" fill="#1A1433" opacity=".06"/><rect x="340" y="100" width="4" height="4" fill="#1A1433" opacity=".06"/><rect x="340" y="130" width="4" height="4" fill="#1A1433" opacity=".06"/><rect x="340" y="160" width="4" height="4" fill="#1A1433" opacity=".06"/><rect x="340" y="190" width="4" height="4" fill="#1A1433" opacity=".06"/><rect x="340" y="220" width="4" height="4" fill="#1A1433" opacity=".06"/><rect x="340" y="250" width="4" height="4" fill="#1A1433" opacity=".06"/><rect x="340" y="280" width="4" height="4" fill="#1A1433" opacity=".06"/><rect x="370" y="10" width="4" height="4" fill="#1A1433" opacity=".06"/><rect x="370" y="40" width="4" height="4" fill="#1A1433" opacity=".06"/><rect x="370" y="70" width="4" height="4" fill="#1A1433" opacity=".06"/><rect x="370" y="100" width="4" height="4" fill="#1A1433" opacity=".06"/><rect x="370" y="130" width="4" height="4" fill="#1A1433" opacity=".06"/><rect x="370" y="160" width="4" height="4" fill="#1A1433" opacity=".06"/><rect x="370" y="190" width="4" height="4" fill="#1A1433" opacity=".06"/><rect x="370" y="220" width="4" height="4" fill="#1A1433" opacity=".06"/><rect x="370" y="250" width="4" height="4" fill="#1A1433" opacity=".06"/><rect x="370" y="280" width="4" height="4" fill="#1A1433" opacity=".06"/><rect x="-42" y="72" width="26" height="26" fill="#FF4F79"/><rect x="-16" y="72" width="26" height="26" fill="#FF4F79"/><rect x="10" y="72" width="26" height="26" fill="#1A1433"/><rect x="36" y="72" width="26" height="26" fill="#1A1433"/><rect x="62" y="72" width="26" height="26" fill="#1A1433"/><rect x="88" y="72" width="26" height="26" fill="#1A1433"/><rect x="114" y="72" width="26" height="26" fill="#1A1433"/><rect x="140" y="72" width="26" height="26" fill="#1A1433"/><rect x="166" y="72" width="26" height="26" fill="#1A1433"/><rect x="192" y="72" width="26" height="26" fill="#1A1433"/><rect x="218" y="72" width="26" height="26" fill="#1A1433"/><rect x="244" y="72" width="26" height="26" fill="#1A1433"/><rect x="270" y="72" width="26" height="26" fill="#6C3CE9"/><rect x="296" y="72" width="26" height="26" fill="#6C3CE9"/><rect x="-42" y="98" width="26" height="26" fill="#FF4F79"/><rect x="-16" y="98" width="26" height="26" fill="#FF4F79"/><rect x="10" y="98" width="26" height="26" fill="#1A1433"/><rect x="36" y="98" width="26" height="26" fill="#FFFFFF"/><rect x="62" y="98" width="26" height="26" fill="#FFFFFF"/><rect x="88" y="98" width="26" height="26" fill="#FFFFFF"/><rect x="114" y="98" width="26" height="26" fill="#FFFFFF"/><rect x="140" y="98" width="26" height="26" fill="#FFFFFF"/><rect x="166" y="98" width="26" height="26" fill="#FFFFFF"/><rect x="192" y="98" width="26" height="26" fill="#FFFFFF"/><rect x="218" y="98" width="26" height="26" fill="#FFFFFF"/><rect x="244" y="98" width="26" height="26" fill="#1A1433"/><rect x="270" y="98" width="26" height="26" fill="#6C3CE9"/><rect x="296" y="98" width="26" height="26" fill="#6C3CE9"/><rect x="-42" y="124" width="26" height="26" fill="#FF4F79"/><rect x="10" y="124" width="26" height="26" fill="#1A1433"/><rect x="36" y="124" width="26" height="26" fill="#FFFFFF"/><rect x="62" y="124" width="26" height="26" fill="#FFFFFF"/><rect x="88" y="124" width="26" height="26" fill="#FFFFFF"/><rect x="114" y="124" width="26" height="26" fill="#FFFFFF"/><rect x="140" y="124" width="26" height="26" fill="#FFFFFF"/><rect x="166" y="124" width="26" height="26" fill="#FFFFFF"/><rect x="192" y="124" width="26" height="26" fill="#FFFFFF"/><rect x="218" y="124" width="26" height="26" fill="#FFFFFF"/><rect x="244" y="124" width="26" height="26" fill="#1A1433"/><rect x="296" y="124" width="26" height="26" fill="#6C3CE9"/><rect x="-42" y="150" width="26" height="26" fill="#FF4F79"/><rect x="-16" y="150" width="26" height="26" fill="#FF4F79"/><rect x="10" y="150" width="26" height="26" fill="#1A1433"/><rect x="36" y="150" width="26" height="26" fill="#FFFFFF"/><rect x="62" y="150" width="26" height="26" fill="#FFFFFF"/><rect x="88" y="150" width="26" height="26" fill="#FFFFFF"/><rect x="114" y="150" width="26" height="26" fill="#FFFFFF"/><rect x="140" y="150" width="26" height="26" fill="#FFFFFF"/><rect x="166" y="150" width="26" height="26" fill="#FFFFFF"/><rect x="192" y="150" width="26" height="26" fill="#FFFFFF"/><rect x="218" y="150" width="26" height="26" fill="#FFFFFF"/><rect x="244" y="150" width="26" height="26" fill="#1A1433"/><rect x="270" y="150" width="26" height="26" fill="#6C3CE9"/><rect x="296" y="150" width="26" height="26" fill="#6C3CE9"/><rect x="-42" y="176" width="26" height="26" fill="#FF4F79"/><rect x="-16" y="176" width="26" height="26" fill="#FF4F79"/><rect x="10" y="176" width="26" height="26" fill="#1A1433"/><rect x="36" y="176" width="26" height="26" fill="#FFFFFF"/><rect x="62" y="176" width="26" height="26" fill="#FFFFFF"/><rect x="88" y="176" width="26" height="26" fill="#FFFFFF"/><rect x="114" y="176" width="26" height="26" fill="#FFFFFF"/><rect x="140" y="176" width="26" height="26" fill="#FFFFFF"/><rect x="166" y="176" width="26" height="26" fill="#FFFFFF"/><rect x="192" y="176" width="26" height="26" fill="#FFFFFF"/><rect x="218" y="176" width="26" height="26" fill="#FFFFFF"/><rect x="244" y="176" width="26" height="26" fill="#1A1433"/><rect x="270" y="176" width="26" height="26" fill="#6C3CE9"/><rect x="296" y="176" width="26" height="26" fill="#6C3CE9"/><rect x="-42" y="202" width="26" height="26" fill="#FF4F79"/><rect x="-16" y="202" width="26" height="26" fill="#FF4F79"/><rect x="10" y="202" width="26" height="26" fill="#1A1433"/><rect x="36" y="202" width="26" height="26" fill="#1A1433"/><rect x="62" y="202" width="26" height="26" fill="#1A1433"/><rect x="88" y="202" width="26" height="26" fill="#1A1433"/><rect x="114" y="202" width="26" height="26" fill="#1A1433"/><rect x="140" y="202" width="26" height="26" fill="#1A1433"/><rect x="166" y="202" width="26" height="26" fill="#1A1433"/><rect x="192" y="202" width="26" height="26" fill="#1A1433"/><rect x="218" y="202" width="26" height="26" fill="#1A1433"/><rect x="244" y="202" width="26" height="26" fill="#1A1433"/><rect x="270" y="202" width="26" height="26" fill="#6C3CE9"/><rect x="296" y="202" width="26" height="26" fill="#6C3CE9"/></svg>