<svg xmlns="http://www.w3.org/2000/svg" viewBox="0 0 400 300" role="img" shape-rendering="crispEdges"><title>SIL-001</title><rect width="400" height="300" fill="#DCE8FF"/><rect x="10" y="10" width="4" height="4" fill="#1A1433" opacity=".06"/><rect x="10" y="40" width="4" height="4" fill="#1A1433" opacity=".06"/><rect x="10" y="70" width="4" height="4" fill="#1A1433" opacity=".06"/><rect x="10" y="100" width="4" height="4" fill="#1A1433" opacity=".06"/><rect x="10" y="130" width="4" height="4" fill="#1A1433" opacity=".06"/><rect x="10" y="160" width="4" height="4" fill="#1A1433" opacity=".06"/><rect x="10" y="190" width="4" height="4" fill="#1A1433" opacity=".06"/><rect x="10" y="220" width="4" height="4" fill="#1A1433" opacity=".06"/><rect x="10" y="250" width="4" height="4" fill="#1A1433" opacity=".06"/><rect x="10" y="280" width="4" height="4" fill="#1A1433" opacity=".06"/><rect x="40" y="10" width="4" height="4" fill="#1A1433" opacity=".06"/><rect x="40" y="40" width="4" height="4" fill="#1A1433" opacity=".06"/><rect x="40" y="70" width="4" height="4" fill="#1A1433" opacity=".06"/><rect x="40" y="100" width="4" height="4" fill="#1A1433" opacity=".06"/><rect x="40" y="130" width="4" height="4" fill="#1A1433" opacity=".06"/><rect x="40" y="160" width="4" height="4" fill="#1A1433" opacity=".06"/><rect x="40" y="190" width="4" height="4" fill="#1A1433" opacity=".06"/><rect x="40" y="220" width="4" height="4" fill="#1A1433" opacity=".06"/><rect x="40" y="250" width="4" height="4" fill="#1A1433" opacity=".06"/><rect x="40" y="280" width="4" height="4" fill="#1A1433" opacity=".06"/><rect x="70" y="10" width="4" height="4" fill="#1A1433" opacity=".06"/><rect x="70" y="40" width="4" height="4" fill="#1A1433" opacity=".06"/><rect x="70" y="70" width="4" height="4" fill="#1A1433" opacity=".06"/><rect x="70" y="100" width="4" height="4" fill="#1A1433" opacity=".06"/><rect x="70" y="130" width="4" height="4" fill="#1A1433" opacity=".06"/><rect x="70" y="160" width="4" height="4" fill="#1A1433" opacity=".06"/><rect x="70" y="190" width="4" height="4" fill="#1A1433" opacity=".06"/><rect x="70" y="220" width="4" height="4" fill="#1A1433" opacity=".06"/><rect x="70" y="250" width="4" height="4" fill="#1A1433" opacity=".06"/><rect x="70" y="280" width="4" height="4" fill="#1A1433" opacity=".06"/><rect x="100" y="10" width="4" height="4" fill="#1A1433" opacity=".06"/><rect x="100" y="40" width="4" height="4" fill="#1A1433" opacity=".06"/><rect x="100" y="70" width="4" height="4" fill="#1A1433" opacity=".06"/><rect x="100" y="100" width="4" height="4" fill="#1A1433" opacity=".06"/><rect x="100" y="130" width="4" height="4" fill="#1A1433" opacity=".06"/><rect x="100" y="160" width="4" height="4" fill="#1A1433" opacity=".06"/><rect x="100" y="190" width="4" height="4" fill="#1A1433" opacity=".06"/><rect x="100" y="220" width="4" height="4" fill="#1A1433" opacity=".06"/><rect x="100" y="250" width="4" height="4" fill="#1A1433" opacity=".06"/><rect x="100" y="280" width="4" height="4" fill="#1A1433" opacity=".06"/><rect x="130" y="10" width="4" height="4" fill="#1A1433" opacity=".06"/><rect x="130" y="40" width="4" height="4" fill="#1A1433" opacity=".06"/><rect x="130" y="70" width="4" height="4" fill="#1A1433" opacity=".06"/><rect x="130" y="100" width="4" height="4" fill="#1A1433" opacity=".06"/><rect x="130" y="130" width="4" height="4" fill="#1A1433" opacity=".06"/><rect x="130" y="160" width="4" height="4" fill="#1A1433" opacity=".06"/><rect x="130" y="190" width="4" height="4" fill="#1A1433" opacity=".06"/><rect x="130" y="220" width="4" height="4" fill="#1A1433" opacity=".06"/><rect x="130" y="250" width="4" height="4" fill="#1A1433" opacity=".06"/><rect x="130" y="280" width="4" height="4" fill="#1A1433" opacity=".06"/><rect x="160" y="10" width="4" height="4" fill="#1A1433" opacity=".06"/><rect x="160" y="40" width="4" height="4" fill="#1A1433" opacity=".06"/><rect x="160" y="70" width="4" height="4" fill="#1A1433" opacity=".06"/><rect x="160" y="100" width="4" height="4" fill="#1A1433" opacity=".06"/><rect x="160" y="130" width="4" height="4" fill="#1A1433" opacity=".06"/><rect x="160" y="160" width="4" height="4" fill="#1A1433" opacity=".06"/><rect x="160" y="190" width="4" height="4" fill="#1A1433" opacity=".06"/><rect x="160" y="220" width="4" height="4" fill="#1A1433" opacity=".06"/><rect x="160" y="250" width="4" height="4" fill="#1A1433" opacity=".06"/><rect x="160" y="280" width="4" height="4" fill="#1A1433" opacity=".06"/><rect x="190" y="10" width="4" height="4" fill="#1A1433" opacity=".06"/><rect x="190" y="40" width="4" height="4" fill="#1A1433" opacity=".06"/><rect x="190" y="70" width="4" height="4" fill="#1A1433" opacity=".06"/><rect x="190" y="100" width="4" height="4" fill="#1A1433" opacity=".06"/><rect x="190" y="130" width="4" height="4" fill="#1A1433" opacity=".06"/><rect x="190" y="160" width="4" height="4" fill="#1A1433" opacity=".06"/><rect x="190" y="190" width="4" height="4" fill="#1A1433" opacity=".06"/><rect x="190" y="220" width="4" height="4" fill="#1A1433" opacity=".06"/><rect x="190" y="250" width="4" height="4" fill="#1A1433" opacity=".06"/><rect x="190" y="280" width="4" height="4" fill="#1A1433" opacity=".06"/><rect x="220" y="10" width="4" height="4" fill="#1A1433" opacity=".06"/><rect x="220" y="40" width="4" height="4" fill="#1A1433" opacity=".06"/><rect x="220" y="70" width="4" height="4" fill="#1A1433" opacity=".06"/><rect x="220" y="100" width="4" height="4" fill="#1A1433" opacity=".06"/><rect x="220" y="130" width="4" height="4" fill="#1A1433" opacity=".06"/><rect x="220" y="160" width="4" height="4" fill="#1A1433" opacity=".06"/><rect x="220" y="190" width="4" height="4" fill="#1A1433" opacity=".06"/><rect x="220" y="220" width="4" height="4" fill="#1A1433" opacity=".06"/><rect x="220" y="250" width="4" height="4" fill="#1A1433" opacity=".06"/><rect x="220" y="280" width="4" height="4" fill="#1A1433" opacity=".06"/><rect x="250" y="10" width="4" height="4" fill="#1A1433" opacity=".06"/><rect x="250" y="40" width="4" height="4" fill="#1A1433" opacity=".06"/><rect x="250" y="70" width="4" height="4" fill="#1A1433" opacity=".06"/><rect x="250" y="100" width="4" height="4" fill="#1A1433" opacity=".06"/><rect x="250" y="130" width="4" height="4" fill="#1A1433" opacity=".06"/><rect x="250" y="160" width="4" height="4" fill="#1A1433" opacity=".06"/><rect x="250" y="190" width="4" height="4" fill="#1A1433" opacity=".06"/><rect x="250" y="220" width="4" height="4" fill="#1A1433" opacity=".06"/><rect x="250" y="250" width="4" height="4" fill="#1A1433" opacity=".06"/><rect x="250" y="280" width="4" height="4" fill="#1A1433" opacity=".06"/><rect x="280" y="10" width="4" height="4" fill="#1A1433" opacity=".06"/><rect x="280" y="40" width="4" height="4" fill="#1A1433" opacity=".06"/><rect x="280" y="70" width="4" height="4" fill="#1A1433" opacity=".06"/><rect x="280" y="100" width="4" height="4" fill="#1A1433" opacity=".06"/><rect x="280" y="130" width="4" height="4" fill="#1A1433" opacity=".06"/><rect x="280" y="160" width="4" height="4" fill="#1A1433" opacity=".06"/><rect x="280" y="190" width="4" height="4" fill="#1A1433" opacity=".06"/><rect x="280" y="220" width="4" height="4" fill="#1A1433" opacity=".06"/><rect x="280" y="250" width="4" height="4" fill="#1A1433" opacity=".06"/><rect x="280" y="280" width="4" height="4" fill="#1A1433" opacity=".06"/><rect x="310" y="10" width="4" height="4" fill="#1A1433" opacity=".06"/><rect x="310" y="40" width="4" height="4" fill="#1A1433" opacity=".06"/><rect x="310" y="70" width="4" height="4" fill="#1A1433" opacity=".06"/><rect x="310" y="100" width="4" height="4" fill="#1A1433" opacity=".06"/><rect x="310" y="130" width="4" height="4" fill="#1A1433" opacity=".06"/><rect x="310" y="160" width="4" height="4" fill="#1A1433" opacity=".06"/><rect x="310" y="190" width="4" height="4" fill="#1A1433" opacity=".06"/><rect x="310" y="220" width="4" height="4" fill="#1A1433" opacity=".06"/><rect x="310" y="250" width="4" height="4" fill="#1A1433" opacity=".06"/><rect x="310" y="280" width="4" height="4" fill="#1A1433" opacity=".06"/><rect x="340" y="10" width="4" height="4" fill="#1A1433" opacity=".06"/><rect x="340" y="40" width="4" height="4" fill="#1A1433" opacity=".06"/><rect x="340" y="70" width="4" height="4" fill="#1A1433" opacity=".06"/><rect x="340" y="100" width="4" height="4" fill="#1A1433" opacity=".06"/><rect x="340" y="130" width="4" height="4" fill="#1A1433" opacity=".06"/><rect x="340" y="160" width="4" height="4" fill="#1A1433" opacity=".06"/><rect x="340" y="190" width="4" height="4" fill="#1A1433" opacity=".06"/><rect x="340" y="220" width="4" height="4" fill="#1A1433" opacity=".06"/><rect x="340" y="250" width="4" height="4" fill="#1A1433" opacity=".06"/><rect x="340" y="280" width="4" height="4" fill="#1A1433" opacity=".06"/><rect x="370" y="10" width="4" height="4" fill="#1A1433" opacity=".06"/><rect x="370" y="40" width="4" height="4" fill="#1A1433" opacity=".06"/><rect x="370" y="70" width="4" height="4" fill="#1A1433" opacity=".06"/><rect x="370" y="100" width="4" height="4" fill="#1A1433" opacity=".06"/><rect x="370" y="130" width="4" height="4" fill="#1A1433" opacity=".06"/><rect x="370" y="160" width="4" height="4" fill="#1A1433" opacity=".06"/><rect x="370" y="190" width="4" height="4" fill="#1A1433" opacity=".06"/><rect x="370" y="220" width="4" height="4" fill="#1A1433" opacity=".06"/><rect x="370" y="250" width="4" height="4" fill="#1A1433" opacity=".06"/><rect x="370" y="280" width="4" height="4" fill="#1A1433" opacity=".06"/><rect x="132" y="56" width="17" height="17" fill="#1A1433"/><rect x="149" y="56" width="17" height="17" fill="#1A1433"/><rect x="166" y="56" width="17" height="17" fill="#1A1433"/><rect x="183" y="56" width="17" height="17" fill="#1A1433"/><rect x="200" y="56" width="17" height="17" fill="#1A1433"/><rect x="217" y="56" width="17" height="17" fill="#1A1433"/><rect x="234" y="56" width="17" height="17" fill="#1A1433"/><rect x="251" y="56" width="17" height="17" fill="#1A1433"/><rect x="132" y="73" width="17" height="17" fill="#1A1433"/><rect x="149" y="73" width="17" height="17" fill="#6C3CE9"/><rect x="166" y="73" width="17" height="17" fill="#6C3CE9"/><rect x="183" y="73" width="17" height="17" fill="#6C3CE9"/><rect x="200" y="73" width="17" height="17" fill="#6C3CE9"/><rect x="217" y="73" width="17" height="17" fill="#6C3CE9"/><rect x="234" y="73" width="17" height="17" fill="#6C3CE9"/><rect x="251" y="73" width="17" height="17" fill="#1A1433"/><rect x="132" y="90" width="17" height="17" fill="#1A1433"/><rect x="149" y="90" width="17" height="17" fill="#6C3CE9"/><rect x="166" y="90" width="17" height="17" fill="#6C3CE9"/><rect x="183" y="90" width="17" height="17" fill="#FF4F79"/><rect x="200" y="90" width="17" height="17" fill="#FF4F79"/><rect x="217" y="90" width="17" height="17" fill="#6C3CE9"/><rect x="234" y="90" width="17" height="17" fill="#6C3CE9"/><rect x="251" y="90" width="17" height="17" fill="#1A1433"/><rect x="132" y="107" width="17" height="17" fill="#1A1433"/><rect x="149" y="107" width="17" height="17" fill="#6C3CE9"/><rect x="166" y="107" width="17" height="17" fill="#6C3CE9"/><rect x="183" y="107" width="17" height="17" fill="#6C3CE9"/><rect x="200" y="107" width="17" height="17" fill="#6C3CE9"/><rect x="217" y="107" width="17" height="17" fill="#6C3CE9"/><rect x="234" y="107" width="17" height="17" fill="#6C3CE9"/><rect x="251" y="107" width="17" height="17" fill="#1A1433"/><rect x="132" y="124" width="17" height="17" fill="#1A1433"/><rect x="149" y="124" width="17" height="17" fill="#6C3CE9"/><rect x="166" y="124" width="17" height="17" fill="#6C3CE9"/><rect x="183" y="124" width="17" height="17" fill="#6C3CE9"/><rect x="200" y="124" width="17" height="17" fill="#6C3CE9"/><rect x="217" y="124" width="17" height="17" fill="#6C3CE9"/><rect x="234" y="124" width="17" height="17" fill="#6C3CE9"/><rect x="251" y="124" width="17" height="17" fill="#1A1433"/><rect x="98" y="141" width="17" height="17" fill="#1A1433"/><rect x="115" y="141" width="17" height="17" fill="#1A1433"/><rect x="132" y="141" width="17" height="17" fill="#1A1433"/><rect x="149" y="141" width="17" height="17" fill="#1A1433"/><rect x="166" y="141" width="17" height="17" fill="#1A1433"/><rect x="183" y="141" width="17" height="17" fill="#1A1433"/><rect x="200" y="141" width="17" height="17" fill="#1A1433"/><rect x="217" y="141" width="17" height="17" fill="#1A1433"/><rect x="234" y="141" width="17" height="17" fill="#1A1433"/><rect x="251" y="141" width="17" height="17" fill="#1A1433"/><rect x="268" y="141" width="17" height="17" fill="#1A1433"/><rect x="285" y="141" width="17" height="17" fill="#1A1433"/><rect x="98" y="158" width="17" height="17" fill="#1A1433"/><rect x="115" y="158" width="17" height="17" fill="#FF4F79"/><rect x="132" y="158" width="17" height="17" fill="#FF4F79"/><rect x="149" y="158" width="17" height="17" fill="#FF4F79"/><rect x="166" y="158" width="17" height="17" fill="#FF4F79"/><rect x="183" y="158" width="17" height="17" fill="#FF4F79"/><rect x="200" y="158" width="17" height="17" fill="#FF4F79"/><rect x="217" y="158" width="17" height="17" fill="#FF4F79"/><rect x="234" y="158" width="17" height="17" fill="#FF4F79"/><rect x="251" y="158" width="17" height="17" fill="#FF4F79"/><rect x="268" y="158" width="17" height="17" fill="#FF4F79"/><rect x="285" y="158" width="17" height="17" fill="#1A1433"/><rect x="98" y="175" width="17" height="17" fill="#1A1433"/><rect x="115" y="175" width="17" height="17" fill="#1A1433"/><rect x="132" y="175" width="17" height="17" fill="#1A1433"/><rect x="149" y="175" width="17" height="17" fill="#1A1433"/><rect x="166" y="175" width="17" height="17" fill="#1A1433"/><rect x="183" y="175" width="17" height="17" fill="#1A1433"/><rect x="200" y="175" width="17" height="17" fill="#1A1433"/><rect x="217" y="175" width="17" height="17" fill="#1A1433"/><rect x="234" y="175" width="17" height="17" fill="#1A1433"/><rect x="251" y="175" width="17" height="17" fill="#1A1433"/><rect x="268" y="175" width="17" height="17" fill="#1A1433"/><rect x="285" y="175" width="17" height="17" fill="#1A1433"/><rect x="183" y="192" width="17" height="17" fill="#1A1433"/><rect x="200" y="192" width="17" height="17" fill="#1A1433"/><rect x="132" y="209" width="17" height="17" fill="#1A1433"/><rect x="149" y="209" width="17" height="17" fill="#1A1433"/><rect x="166" y="209" width="17" height="17" fill="#1A1433"/><rect x="183" y="209" width="17" height="17" fill="#1A1433"/><rect x="200" y="209" width="17" height="17" fill="#1A1433"/><rect x="217" y="209" width="17" height="17" fill="#1A1433"/><rect x="234" y="209" width="17" height="17" fill="#1A1433"/><rect x="251" y="209" width="17" height="17" fill="#1A1433"/><rect x="115" y="226" width="17" height="17" fill="#1A1433"/><rect x="183" y="226" width="17" height="17" fill="#1A1433"/><rect x="200" y="226" width="17" height="17" fill="#1A1433"/><rect x="268" y="226" width="17" height="17" fill="#1A1433"/></svg>