<svg xmlns="http://www.w3.org/2000/svg" viewBox="0 0 240 240" role="img" shape-rendering="crispEdges"><title>Avatar integrante 2</title><rect width="240" height="240" fill="#FF4F79"/><rect x="36" y="48" width="14" height="14" fill="#FF4F79"/><rect x="50" y="48" width="14" height="14" fill="#FF4F79"/><rect x="64" y="48" width="14" height="14" fill="#FF4F79"/><rect x="78" y="48" width="14" height="14" fill="#F4F3FA"/><rect x="92" y="48" width="14" height="14" fill="#F4F3FA"/><rect x="106" y="48" width="14" height="14" fill="#F4F3FA"/><rect x="120" y="48" width="14" height="14" fill="#F4F3FA"/><rect x="134" y="48" width="14" height="14" fill="#F4F3FA"/><rect x="148" y="48" width="14" height="14" fill="#F4F3FA"/><rect x="162" y="48" width="14" height="14" fill="#FF4F79"/><rect x="176" y="48" width="14" height="14" fill="#FF4F79"/><rect x="190" y="48" width="14" height="14" fill="#FF4F79"/><rect x="36" y="62" width="14" height="14" fill="#FF4F79"/><rect x="50" y="62" width="14" height="14" fill="#FF4F79"/><rect x="64" y="62" width="14" height="14" fill="#F4F3FA"/><rect x="78" y="62" width="14" height="14" fill="#F4F3FA"/><rect x="92" y="62" width="14" height="14" fill="#F4F3FA"/><rect x="106" y="62" width="14" height="14" fill="#F4F3FA"/><rect x="120" y="62" width="14" height="14" fill="#F4F3FA"/><rect x="134" y="62" width="14" height="14" fill="#F4F3FA"/><rect x="148" y="62" width="14" height="14" fill="#F4F3FA"/><rect x="162" y="62" width="14" height="14" fill="#F4F3FA"/><rect x="176" y="62" width="14" height="14" fill="#FF4F79"/><rect x="190" y="62" width="14" height="14" fill="#FF4F79"/><rect x="36" y="76" width="14" height="14" fill="#FF4F79"/><rect x="50" y="76" width="14" height="14" fill="#F4F3FA"/><rect x="64" y="76" width="14" height="14" fill="#F4F3FA"/><rect x="78" y="76" width="14" height="14" fill="#F4F3FA"/><rect x="92" y="76" width="14" height="14" fill="#F4F3FA"/><rect x="106" y="76" width="14" height="14" fill="#F4F3FA"/><rect x="120" y="76" width="14" height="14" fill="#F4F3FA"/><rect x="134" y="76" width="14" height="14" fill="#F4F3FA"/><rect x="148" y="76" width="14" height="14" fill="#F4F3FA"/><rect x="162" y="76" width="14" height="14" fill="#F4F3FA"/><rect x="176" y="76" width="14" height="14" fill="#F4F3FA"/><rect x="190" y="76" width="14" height="14" fill="#FF4F79"/><rect x="36" y="90" width="14" height="14" fill="#FF4F79"/><rect x="50" y="90" width="14" height="14" fill="#F4F3FA"/><rect x="64" y="90" width="14" height="14" fill="#FFFFFF"/><rect x="78" y="90" width="14" height="14" fill="#FFFFFF"/><rect x="92" y="90" width="14" height="14" fill="#F4F3FA"/><rect x="106" y="90" width="14" height="14" fill="#F4F3FA"/><rect x="120" y="90" width="14" height="14" fill="#F4F3FA"/><rect x="134" y="90" width="14" height="14" fill="#F4F3FA"/><rect x="148" y="90" width="14" height="14" fill="#FFFFFF"/><rect x="162" y="90" width="14" height="14" fill="#FFFFFF"/><rect x="176" y="90" width="14" height="14" fill="#F4F3FA"/><rect x="190" y="90" width="14" height="14" fill="#FF4F79"/><rect x="36" y="104" width="14" height="14" fill="#FF4F79"/><rect x="50" y="104" width="14" height="14" fill="#F4F3FA"/><rect x="64" y="104" width="14" height="14" fill="#FFFFFF"/><rect x="78" y="104" width="14" height="14" fill="#FF4F79"/><rect x="92" y="104" width="14" height="14" fill="#F4F3FA"/><rect x="106" y="104" width="14" height="14" fill="#F4F3FA"/><rect x="120" y="104" width="14" height="14" fill="#F4F3FA"/><rect x="134" y="104" width="14" height="14" fill="#F4F3FA"/><rect x="148" y="104" width="14" height="14" fill="#FF4F79"/><rect x="162" y="104" width="14" height="14" fill="#FFFFFF"/><rect x="176" y="104" width="14" height="14" fill="#F4F3FA"/><rect x="190" y="104" width="14" height="14" fill="#FF4F79"/><rect x="36" y="118" width="14" height="14" fill="#FF4F79"/><rect x="50" y="118" width="14" height="14" fill="#F4F3FA"/><rect x="64" y="118" width="14" height="14" fill="#F4F3FA"/><rect x="78" y="118" width="14" height="14" fill="#F4F3FA"/><rect x="92" y="118" width="14" height="14" fill="#F4F3FA"/><rect x="106" y="118" width="14" height="14" fill="#F4F3FA"/><rect x="120" y="118" width="14" height="14" fill="#F4F3FA"/><rect x="134" y="118" width="14" height="14" fill="#F4F3FA"/><rect x="148" y="118" width="14" height="14" fill="#F4F3FA"/><rect x="162" y="118" width="14" height="14" fill="#F4F3FA"/><rect x="176" y="118" width="14" height="14" fill="#F4F3FA"/><rect x="190" y="118" width="14" height="14" fill="#FF4F79"/><rect x="36" y="132" width="14" height="14" fill="#FF4F79"/><rect x="50" y="132" width="14" height="14" fill="#F4F3FA"/><rect x="64" y="132" width="14" height="14" fill="#F4F3FA"/><rect x="78" y="132" width="14" height="14" fill="#F4F3FA"/><rect x="92" y="132" width="14" height="14" fill="#1A1433"/><rect x="106" y="132" width="14" height="14" fill="#1A1433"/><rect x="120" y="132" width="14" height="14" fill="#1A1433"/><rect x="134" y="132" width="14" height="14" fill="#1A1433"/><rect x="148" y="132" width="14" height="14" fill="#F4F3FA"/><rect x="162" y="132" width="14" height="14" fill="#F4F3FA"/><rect x="176" y="132" width="14" height="14" fill="#F4F3FA"/><rect x="190" y="132" width="14" height="14" fill="#FF4F79"/><rect x="36" y="146" width="14" height="14" fill="#FF4F79"/><rect x="50" y="146" width="14" height="14" fill="#FF4F79"/><rect x="64" y="146" width="14" height="14" fill="#F4F3FA"/><rect x="78" y="146" width="14" height="14" fill="#F4F3FA"/><rect x="92" y="146" width="14" height="14" fill="#F4F3FA"/><rect x="106" y="146" width="14" height="14" fill="#F4F3FA"/><rect x="120" y="146" width="14" height="14" fill="#F4F3FA"/><rect x="134" y="146" width="14" height="14" fill="#F4F3FA"/><rect x="148" y="146" width="14" height="14" fill="#F4F3FA"/><rect x="162" y="146" width="14" height="14" fill="#F4F3FA"/><rect x="176" y="146" width="14" height="14" fill="#FF4F79"/><rect x="190" y="146" width="14" height="14" fill="#FF4F79"/><rect x="36" y="160" width="14" height="14" fill="#FF4F79"/><rect x="50" y="160" width="14" height="14" fill="#FF4F79"/><rect x="64" y="160" width="14" height="14" fill="#FF4F79"/><rect x="78" y="160" width="14" height="14" fill="#F4F3FA"/><rect x="92" y="160" width="14" height="14" fill="#F4F3FA"/><rect x="106" y="160" width="14" height="14" fill="#F4F3FA"/><rect x="120" y="160" width="14" height="14" fill="#F4F3FA"/><rect x="134" y="160" width="14" height="14" fill="#F4F3FA"/><rect x="148" y="160" width="14" height="14" fill="#F4F3FA"/><rect x="162" y="160" width="14" height="14" fill="#FF4F79"/><rect x="176" y="160" width="14" height="14" fill="#FF4F79"/><rect x="190" y="160" width="14" height="14" fill="#FF4F79"/><rect x="106" y="104" width="14" height="14" fill="#1A1433"/><rect x="162" y="104" width="14" height="14" fill="#1A1433"/></svg>